<svg version="1.2" xmlns="http://www.w3.org/2000/svg" viewBox="0 0 63 63" width="512" height="512">
	<title>velo symbol black details-svg</title>
	<style>
		.s0 { fill: #b463e1 } 
		.s1 { fill: #9366d6 } 
		.s2 { fill: #000000 } 
	</style>
	<path id="Layer" class="s0" d="m1.6 2.7c0-0.8 0.7-1.5 1.5-1.5h22.6c0.8 0 1.5 0.7 1.5 1.5v57.3c0 0.9-0.7 1.6-1.5 1.6h-22.6c-0.8 0-1.5-0.7-1.5-1.6z"/>
	<path id="Layer" class="s0" d="m61.2 2.8v57.2c0 0.9-0.7 1.6-1.6 1.6h-22.5c-0.9 0-1.6-0.7-1.6-1.6v-57.3c0-0.8 0.7-1.5 1.6-1.5h22.5c0.9 0 1.6 0.7 1.6 1.5z"/>
	<path id="Layer" class="s1" d="m61.2 2.8v57.2c0 0.9-0.7 1.6-1.6 1.6h-22.5c-0.9 0-1.6-0.7-1.6-1.6v-57.3c0-0.8 0.7-1.5 1.6-1.5h22.5c0.9 0 1.6 0.7 1.6 1.5z"/>
	<path id="Layer" class="s2" d="m27.2 30.2v10l-12.8 13.8-12.8-13.8v-10l12.8 13.7 12.8-13.7z"/>
	<path id="Layer" class="s2" d="m61.2 22.3v10l-12.8-13.7-12.9 13.7v-10l12.9-13.7 12.8 13.7z"/>
	<path id="Layer" class="s2" d="m55 41c-8.2 0-14.9 6.7-14.9 14.9 0 2 0.4 3.9 1.1 5.7h8.1c-1.5-1.5-2.4-3.5-2.4-5.7 0-4.5 3.7-8.1 8.1-8.1 2.5 0 4.7 1.2 6.2 2.9v-8.4c-1.9-0.9-4-1.3-6.2-1.3z"/>
	<path id="Layer" class="s2" d="m11.5 1.2h6.8v19.1h-6.8z"/>
</svg>